<svg xmlns="http://www.w3.org/2000/svg" viewBox="0 0 240 60"><path fill="currentColor" d="M138.998 7.512q-3.14 0-5.64.798-2.502.745-4.258 2.182a9.8 9.8 0 0 0-2.714 3.513q-.958 2.022-.958 4.576 0 2.555.905 4.364a10.4 10.4 0 0 0 2.342 3.033q1.437 1.224 3.246 2.075a51 51 0 0 0 3.618 1.437q4.151 1.384 5.854 2.608 1.703 1.17 1.703 2.98 0 .852-.266 1.543-.266.693-.958 1.224-.692.48-1.862.799-1.118.266-2.874.266-3.513 0-5.96-.692-2.395-.745-4.045-1.65l-2.342 6.599q.745.425 1.81.905 1.117.478 2.608.904 1.544.426 3.512.692 1.97.32 4.417.32 7.29 0 10.909-2.821 3.62-2.874 3.619-8.036 0-2.661-.692-4.523a8.6 8.6 0 0 0-2.129-3.246q-1.383-1.384-3.512-2.395-2.129-1.065-5.002-2.129-1.384-.479-2.555-.905a18 18 0 0 1-2.022-1.01q-.85-.586-1.33-1.278t-.48-1.703q0-1.703 1.278-2.501 1.33-.851 4.31-.851 2.661 0 4.524.638 1.915.586 3.459 1.384l2.395-6.546q-1.756-.957-4.47-1.756-2.714-.798-6.44-.798m-122.77.426q-2.606 0-5.64.266A49 49 0 0 0 5 8.895v35.762q3.246.692 6.226.851 3.034.213 6.067.213 8.354 0 12.56-2.927 4.256-2.926 4.256-8.727 0-2.873-1.277-5.162t-4.789-3.62q4.257-2.553 4.257-6.97 0-2.927-1.224-4.896-1.17-2.022-3.3-3.246-2.127-1.224-5.108-1.703-2.927-.532-6.44-.532m148.953 1.064-7.93 1.277v23.522q0 2.713.48 4.95.531 2.234 1.809 3.83 1.276 1.544 3.406 2.448 2.128.852 5.374.852 2.555 0 4.311-.426a22.6 22.6 0 0 0 3.193-1.011l-1.118-6.173q-1.117.425-2.5.692-1.332.213-2.608.213-2.661 0-3.566-1.49-.851-1.49-.851-3.991V23.85h9.525v-6.6h-9.525zm-147.622 5.64q3.3 0 5.002.905 1.703.905 1.703 3.14 0 2.183-1.65 3.193-1.649.958-5.48.958h-4.045v-8.035a20 20 0 0 1 2.182-.107 53 53 0 0 1 2.288-.053m32.728 1.863q-1.384 0-2.767.16-1.33.107-2.554.32-1.225.16-2.289.425-1.01.213-1.703.426l1.011 6.386q1.438-.532 3.406-.799a25 25 0 0 1 3.992-.319q3.032 0 4.257 1.224 1.224 1.225 1.224 3.247v.744q-.745-.213-1.97-.319a20 20 0 0 0-2.713-.16q-2.289 0-4.417.48-2.13.425-3.779 1.436a7.8 7.8 0 0 0-2.66 2.714q-.959 1.703-.958 4.151 0 2.555.85 4.31a7.4 7.4 0 0 0 2.45 2.875q1.595 1.064 3.777 1.543 2.235.479 4.95.479 4.31 0 7.344-.532 3.033-.48 4.735-.852V27.947q0-2.608-.585-4.736-.585-2.129-2.022-3.619-1.383-1.49-3.725-2.288-2.34-.8-5.854-.799m29.429 0q-5.11 0-8.036 2.289-2.927 2.288-2.927 6.226 0 2.022.586 3.459.585 1.437 1.65 2.501 1.064 1.012 2.553 1.756 1.545.745 3.406 1.437 2.395.904 3.566 1.65 1.17.692 1.17 1.65.001 1.223-.904 1.65-.905.425-3.086.425a21.4 21.4 0 0 1-4.205-.426 28 28 0 0 1-4.15-1.277l-1.33 6.44q.957.425 3.405 1.064 2.501.638 6.226.638 5.694 0 8.78-2.128 3.14-2.13 3.14-6.28 0-1.756-.425-3.086-.373-1.33-1.384-2.395-.957-1.118-2.66-2.023-1.704-.958-4.31-1.915a44 44 0 0 1-2.13-.851 16 16 0 0 1-1.277-.746q-.48-.373-.639-.745a2.1 2.1 0 0 1-.16-.851q0-2.076 3.726-2.076 2.022 0 3.619.373 1.65.372 3.033.852l1.384-6.174q-1.384-.532-3.725-.958a24.4 24.4 0 0 0-4.896-.479m27.832 0q-2.554 0-5.003.959a12.6 12.6 0 0 0-4.257 2.82q-1.863 1.863-3.034 4.683-1.117 2.767-1.117 6.492 0 3.087.851 5.748.905 2.66 2.715 4.63 1.862 1.915 4.63 3.033 2.82 1.117 6.598 1.117 1.49 0 2.98-.16a29 29 0 0 0 2.767-.425q1.331-.214 2.395-.532 1.065-.32 1.703-.639l-1.064-6.44q-1.33.586-3.46 1.012a24 24 0 0 1-4.257.373q-3.406 0-5.428-1.437t-2.288-3.885h17.987q.053-.639.107-1.437.053-.852.053-1.543 0-7.078-3.459-10.697-3.459-3.672-9.42-3.672m114.574 0q-2.554 0-5.002.959a12.6 12.6 0 0 0-4.258 2.82q-1.862 1.863-3.033 4.683-1.118 2.767-1.118 6.492 0 3.087.852 5.748.904 2.66 2.714 4.63 1.862 1.915 4.63 3.033 2.82 1.117 6.599 1.117 1.49 0 2.98-.16a29 29 0 0 0 2.767-.425q1.33-.214 2.394-.532 1.065-.32 1.704-.639l-1.065-6.44q-1.33.586-3.459 1.012a24 24 0 0 1-4.257.373q-3.406 0-5.428-1.437t-2.289-3.885h17.987q.054-.639.107-1.437.053-.852.053-1.543 0-7.078-3.46-10.697-3.458-3.672-9.418-3.672m-43.637.746q2.394 8.248 5.108 14.9 2.715 6.6 5.429 11.92-.8 2.023-1.97 3.14-1.117 1.17-3.246 1.171a12.3 12.3 0 0 1-2.022-.16q-.958-.159-2.182-.585l-1.383 6.333q1.01.426 2.554.745 1.596.372 3.46.372 2.235 0 3.884-.532a8.05 8.05 0 0 0 3.033-1.597q1.33-1.064 2.448-2.766 1.118-1.65 2.235-4.045a183 183 0 0 0 5.694-13.73q2.608-7.078 5.002-15.166h-8.195a193 193 0 0 1-1.224 4.523 176 176 0 0 1-1.383 4.896 153 153 0 0 1-1.437 4.79q-.745 2.34-1.437 4.257a207 207 0 0 1-1.596-4.258 379 379 0 0 1-1.597-4.79q-.798-2.5-1.543-4.895-.692-2.448-1.224-4.523zm-70.83 5.8q1.383 0 2.287.479.958.48 1.543 1.224a4.4 4.4 0 0 1 .905 1.703q.32.958.373 1.969h-10.484q.16-1.01.48-1.97a5.7 5.7 0 0 1 1.01-1.755 4.45 4.45 0 0 1 1.597-1.171q.957-.48 2.288-.479m114.573 0q1.384 0 2.288.479.959.48 1.544 1.224a4.4 4.4 0 0 1 .905 1.703q.318.958.372 1.969h-10.483q.159-1.01.478-1.97a5.7 5.7 0 0 1 1.011-1.755 4.45 4.45 0 0 1 1.597-1.171q.958-.48 2.288-.479M13.09 29.171h5.215q3.566 0 5.482 1.117 1.915 1.065 1.915 3.62 0 2.873-2.288 3.937-2.288 1.065-6.013 1.065-1.277 0-2.342-.054a30 30 0 0 1-1.969-.16zm38.582 3.991q.798 0 1.756.106.957.106 1.437.213v6.014a16 16 0 0 1-1.703.16q-1.065.053-2.236.053-2.181 0-3.459-.692-1.224-.745-1.223-2.608 0-.957.425-1.596A2.97 2.97 0 0 1 47.84 33.8a5 5 0 0 1 1.703-.48q1.011-.159 2.129-.159"/></svg>